{
 "asset": {
  "version": "2.0",
  "generator": "Rawframe Plaza figure"
 },
 "scene": 0,
 "scenes": [
  {
   "nodes": [
    0,
    3
   ]
  }
 ],
 "nodes": [
  {
   "name": "hips",
   "translation": [
    0,
    -0.4,
    0
   ],
   "children": [
    1
   ]
  },
  {
   "name": "spine",
   "translation": [
    0,
    0.5,
    0
   ],
   "children": [
    2
   ]
  },
  {
   "name": "head",
   "translation": [
    0,
    0.4,
    0
   ]
  },
  {
   "name": "figure",
   "mesh": 0,
   "skin": 0
  }
 ],
 "skins": [
  {
   "joints": [
    0,
    1,
    2
   ],
   "inverseBindMatrices": 4
  }
 ],
 "meshes": [
  {
   "name": "figure",
   "primitives": [
    {
     "attributes": {
      "POSITION": 0,
      "NORMAL": 1,
      "JOINTS_0": 2,
      "WEIGHTS_0": 3
     },
     "indices": 5
    }
   ]
  }
 ],
 "buffers": [
  {
   "byteLength": 3576,
   "uri": "data:application/octet-stream;base64,"
  }
 ],
 "bufferViews": [
  {
   "buffer": 0,
   "byteOffset": 0,
   "byteLength": 864
  },
  {
   "buffer": 0,
   "byteOffset": 864,
   "byteLength": 864
  },
  {
   "buffer": 0,
   "byteOffset": 1728,
   "byteLength": 288
  },
  {
   "buffer": 0,
   "byteOffset": 2016,
   "byteLength": 1152
  },
  {
   "buffer": 0,
   "byteOffset": 3168,
   "byteLength": 192
  },
  {
   "buffer": 0,
   "byteOffset": 3360,
   "byteLength": 216
  }
 ],
 "accessors": [
  {
   "bufferView": 0,
   "componentType": 5126,
   "count": 72,
   "type": "VEC3",
   "min": [
    -0.2,
    -1.4,
    -0.12
   ],
   "max": [
    0.2,
    0.65,
    0.12
   ]
  },
  {
   "bufferView": 1,
   "componentType": 5126,
   "count": 72,
   "type": "VEC3"
  },
  {
   "bufferView": 2,
   "componentType": 5121,
   "count": 72,
   "type": "VEC4"
  },
  {
   "bufferView": 3,
   "componentType": 5126,
   "count": 72,
   "type": "VEC4"
  },
  {
   "bufferView": 4,
   "componentType": 5126,
   "count": 3,
   "type": "MAT4"
  },
  {
   "bufferView": 5,
   "componentType": 5123,
   "count": 108,
   "type": "SCALAR"
  }
 ]
}