{
 "asset": {
  "version": "2.0",
  "generator": "rawframe plaza mound"
 },
 "scene": 0,
 "scenes": [
  {
   "nodes": [
    0
   ]
  }
 ],
 "nodes": [
  {
   "name": "mound",
   "mesh": 0
  }
 ],
 "meshes": [
  {
   "name": "mound",
   "primitives": [
    {
     "attributes": {
      "POSITION": 0,
      "NORMAL": 1
     },
     "indices": 2
    }
   ]
  }
 ],
 "buffers": [
  {
   "byteLength": 10008,
   "uri": "data:application/octet-stream;base64,"
  }
 ],
 "bufferViews": [
  {
   "buffer": 0,
   "byteOffset": 0,
   "byteLength": 3468
  },
  {
   "buffer": 0,
   "byteOffset": 3468,
   "byteLength": 3468
  },
  {
   "buffer": 0,
   "byteOffset": 6936,
   "byteLength": 3072
  }
 ],
 "accessors": [
  {
   "bufferView": 0,
   "componentType": 5126,
   "count": 289,
   "type": "VEC3",
   "min": [
    -5.0,
    0.0,
    -5.0
   ],
   "max": [
    5.0,
    1.2000000476837158,
    5.0
   ]
  },
  {
   "bufferView": 1,
   "componentType": 5126,
   "count": 289,
   "type": "VEC3"
  },
  {
   "bufferView": 2,
   "componentType": 5123,
   "count": 1536,
   "type": "SCALAR"
  }
 ]
}
