{
 "asset": {
  "version": "2.0",
  "generator": "Rawframe Plaza figure"
 },
 "scene": 0,
 "scenes": [
  {
   "nodes": [
    0,
    7
   ]
  }
 ],
 "nodes": [
  {
   "name": "hips",
   "translation": [
    0,
    -0.025641,
    0
   ],
   "children": [
    1,
    3,
    4
   ]
  },
  {
   "name": "spine",
   "translation": [
    0,
    0.5,
    0
   ],
   "children": [
    2,
    5,
    6
   ]
  },
  {
   "name": "head",
   "translation": [
    0,
    0.4,
    0
   ]
  },
  {
   "name": "thigh_l",
   "translation": [
    -0.1,
    0,
    0
   ]
  },
  {
   "name": "thigh_r",
   "translation": [
    0.1,
    0,
    0
   ]
  },
  {
   "name": "arm_l",
   "translation": [
    -0.265,
    0.2,
    0
   ]
  },
  {
   "name": "arm_r",
   "translation": [
    0.265,
    0.2,
    0
   ]
  },
  {
   "name": "figure",
   "mesh": 0,
   "skin": 0
  }
 ],
 "skins": [
  {
   "joints": [
    0,
    1,
    2,
    3,
    4,
    5,
    6
   ],
   "inverseBindMatrices": 4
  }
 ],
 "meshes": [
  {
   "name": "figure",
   "primitives": [
    {
     "attributes": {
      "POSITION": 0,
      "NORMAL": 1,
      "JOINTS_0": 2,
      "WEIGHTS_0": 3
     },
     "indices": 5
    }
   ]
  }
 ],
 "buffers": [
  {
   "byteLength": 7216,
   "uri": "data:application/octet-stream;base64,"
  }
 ],
 "bufferViews": [
  {
   "buffer": 0,
   "byteOffset": 0,
   "byteLength": 1728
  },
  {
   "buffer": 0,
   "byteOffset": 1728,
   "byteLength": 1728
  },
  {
   "buffer": 0,
   "byteOffset": 3456,
   "byteLength": 576
  },
  {
   "buffer": 0,
   "byteOffset": 4032,
   "byteLength": 2304
  },
  {
   "buffer": 0,
   "byteOffset": 6336,
   "byteLength": 448
  },
  {
   "buffer": 0,
   "byteOffset": 6784,
   "byteLength": 432
  }
 ],
 "accessors": [
  {
   "bufferView": 0,
   "componentType": 5126,
   "count": 144,
   "type": "VEC3",
   "min": [
    -0.31,
    -1.0256409999999998,
    -0.12
   ],
   "max": [
    0.31,
    1.024359,
    0.12
   ]
  },
  {
   "bufferView": 1,
   "componentType": 5126,
   "count": 144,
   "type": "VEC3"
  },
  {
   "bufferView": 2,
   "componentType": 5121,
   "count": 144,
   "type": "VEC4"
  },
  {
   "bufferView": 3,
   "componentType": 5126,
   "count": 144,
   "type": "VEC4"
  },
  {
   "bufferView": 4,
   "componentType": 5126,
   "count": 7,
   "type": "MAT4"
  },
  {
   "bufferView": 5,
   "componentType": 5123,
   "count": 216,
   "type": "SCALAR"
  }
 ]
}